<?xml version="1.0" encoding="UTF-8" standalone="no"?>
<!-- Created with Inkscape (http://www.inkscape.org/) -->

<svg
   version="1.1"
   id="svg1"
   width="500"
   height="500"
   viewBox="0 0 500 500"
   sodipodi:docname="logo_converted.svg"
   inkscape:version="1.4 (86a8ad7, 2024-10-11)"
   xmlns:inkscape="http://www.inkscape.org/namespaces/inkscape"
   xmlns:sodipodi="http://sodipodi.sourceforge.net/DTD/sodipodi-0.dtd"
   xmlns="http://www.w3.org/2000/svg"
   xmlns:svg="http://www.w3.org/2000/svg">
  <defs
     id="defs1" />
  <sodipodi:namedview
     id="namedview1"
     pagecolor="#ffffff"
     bordercolor="#000000"
     borderopacity="0.25"
     inkscape:showpageshadow="2"
     inkscape:pageopacity="0.0"
     inkscape:pagecheckerboard="0"
     inkscape:deskcolor="#d1d1d1"
     inkscape:zoom="1.0931871"
     inkscape:cx="307.35818"
     inkscape:cy="250.1859"
     inkscape:window-width="1920"
     inkscape:window-height="991"
     inkscape:window-x="-9"
     inkscape:window-y="-9"
     inkscape:window-maximized="1"
     inkscape:current-layer="g1" />
  <g
     inkscape:groupmode="layer"
     inkscape:label="Image"
     id="g1">
    <path
       style="fill:#a77022;stroke-width:11;stroke:#a77022;stroke-opacity:1;fill-opacity:1;stroke-dasharray:none"
       d="M 222.53589,495.4148 C 203.09372,493.52533 176.78472,487.14109 157.56022,479.64755 134.37365,470.60963 98.122645,449.16258 75.240228,430.94486 52.715028,413.01153 42.852601,400.29306 27.399338,369.24982 7.9781146,330.23553 3.0239467,304.47683 4.4052939,249.69456 5.6798806,199.14656 11.001593,172.51241 25.864089,142.29746 37.125723,119.40291 49.380137,101.81988 70.879473,77.707914 95.935549,49.606974 127.06596,30.056779 167.01468,17.334102 200.43242,6.691377 234.15733,2.2338887 266.95557,4.124714 c 62.49714,3.6029732 126.77717,34.649504 166.12567,80.236851 19.30863,22.369985 36.41575,50.975915 48.28023,80.732445 9.59482,24.06417 12.85906,42.65796 13.60721,77.50829 0.6673,31.08406 -1.86183,52.11969 -9.3909,78.10932 -7.29881,25.19477 -25.39124,59.08585 -46.24887,86.63409 -39.7643,52.51972 -112.82873,86.51191 -190.17185,88.47481 -9.78918,0.24843 -21.76871,0.0658 -26.62117,-0.40572 z m 61.75666,-5.05576 c 35.61098,-5.87708 67.73507,-17.40172 96.02554,-34.44957 32.13722,-19.36592 51.00252,-38.44099 73.40077,-74.21705 26.98244,-43.09831 37.74362,-77.68489 39.17807,-125.91879 0.90305,-30.36572 -3.04354,-59.87562 -11.03273,-82.49451 C 473.49381,149.58085 456.84072,118.97429 440.47931,97.218008 433.34333,87.729099 414.72263,68.448434 405.18213,60.669924 373.9365,35.194813 330.1426,15.769177 287.29672,8.3795693 270.95085,5.5604046 232.75289,5.8273521 213.56005,8.8948796 169.29462,15.969674 131.03438,30.977824 101.68371,52.780027 73.100441,74.012208 39.643184,116.26168 24.83743,149.82071 13.630412,175.22277 9.2210201,197.51595 6.9225418,240.39557 c -2.1698719,40.48045 1.0760976,72.73898 9.8443642,97.83354 7.437294,21.28536 20.285955,46.80385 31.307319,62.17889 18.327153,25.5668 74.193605,63.62363 115.540275,78.70732 13.14538,4.79555 29.88154,9.28178 43.93662,11.77746 20.60185,3.65817 52.69383,3.43496 76.74143,-0.53374 z m -64.63016,-2.7448 C 174.10356,480.29823 144.02242,468.727 106.26048,443.99217 68.047415,418.96187 50.990637,400.33694 33.63572,364.6905 27.355837,351.79183 16.250891,324.53983 16.250891,322.02742 c 0,-3.02062 12.61186,4.03565 17.226087,9.6379 2.829037,3.43478 11.141041,6.71915 19.663383,7.76968 32.116165,3.95886 45.44478,6.88524 62.782169,13.78425 24.98117,9.94068 36.19982,17.87372 64.36343,45.51333 36.81106,36.12617 55.00391,50.4034 74.69137,58.6157 16.83319,7.02169 25.96438,9.23273 60.88175,14.74197 9.75429,1.53902 9.57553,3.32236 -0.65575,6.54209 -8.68719,2.73382 -30.29332,7.00159 -43.64432,8.62087 -8.11071,0.98372 -46.36186,1.24982 -51.89662,0.36103 z m 65.09169,-4.75486 c 8.11103,-1.43586 18.1799,-3.52432 22.37526,-4.64101 4.19536,-1.11669 7.97119,-2.04107 8.39073,-2.05419 0.41953,-0.0131 0.76279,-0.41001 0.76279,-0.88196 0,-0.47196 -5.83538,-1.66011 -12.96749,-2.64033 -32.19213,-4.42446 -59.19263,-14.77732 -78.8009,-30.21484 -10.3653,-8.16058 -25.90263,-22.38913 -46.04291,-42.16452 -22.76237,-22.34999 -33.60314,-30.69454 -50.7988,-39.10173 -19.91511,-9.7368 -45.546645,-16.70644 -67.179866,-18.26732 -15.738996,-1.13561 -22.522414,-3.72615 -32.216833,-12.30333 -2.680618,-2.37169 -5.77829,-4.79437 -6.883719,-5.38372 -1.920887,-1.02412 -1.903403,-0.79061 0.395054,5.27504 17.029306,44.94036 34.020158,71.74475 58.029592,91.54615 13.9052,11.46811 42.887382,29.98703 60.694702,38.78246 25.34201,12.51699 53.98946,21.23849 80.16777,24.40646 4.19535,0.50771 17.01027,0.77244 28.4776,0.5883 16.82951,-0.27025 23.69323,-0.83818 35.59702,-2.94546 z m 29.49466,-16.39515 c -38.91602,-4.83469 -63.48889,-13.38444 -84.41577,-29.37115 -8.2455,-6.29899 -28.49326,-24.804 -49.83582,-45.54636 -19.33355,-18.78983 -31.96574,-29.01218 -43.98774,-35.59617 -3.77583,-2.06788 -6.86514,-4.29924 -6.86514,-4.95859 0,-1.68023 12.48704,-2.49966 38.13966,-2.5028 23.02896,-0.003 40.84086,1.25477 51.36141,3.62632 3.63598,0.81961 13.93368,4.4071 22.88379,7.97217 31.46677,12.53407 53.99521,16.31004 102.21428,17.13202 19.68904,0.33563 25.78274,0.80352 34.57996,2.65516 15.08556,3.17518 53.63992,12.97261 55.99939,14.23054 3.42646,1.82678 2.31076,5.50788 -4.06081,13.39794 -15.16818,18.78325 -44.29301,41.33206 -71.50011,55.35624 l -9.05745,4.66875 -11.87974,0.19449 c -6.53385,0.10697 -17.14302,-0.45937 -23.57591,-1.25856 z m 35.48151,-2.4433 c 10.60296,-3.55825 34.36071,-18.23836 50.6828,-31.31729 13.0701,-10.47316 33.84848,-31.82166 33.84848,-34.77726 0,-1.47057 -3.90468,-2.71287 -25.93496,-8.25127 -36.01063,-9.05308 -40.54657,-9.78548 -60.67469,-9.79692 -48.80361,-0.0278 -78.32197,-5.26244 -114.213,-20.25426 -5.56838,-2.32594 -13.34888,-4.832 -17.28998,-5.56902 -14.13231,-2.64285 -35.94212,-3.74492 -59.28027,-2.9955 l -22.61999,0.72635 7.36413,4.52125 c 10.66962,6.55063 23.8118,17.44755 38.89291,32.24832 20.53441,20.15267 41.86863,39.58252 51.3614,46.77666 13.29218,10.07358 29.85424,17.69278 48.81876,22.45861 8.69042,2.18391 22.1538,4.69174 30.0032,5.58871 7.83135,0.89491 15.61184,1.78427 17.28997,1.97636 8.63285,0.98815 16.21607,0.52282 21.75124,-1.33474 z m 59.15539,-81.18796 c -15.35518,-3.83624 -32.9757,-7.67807 -39.1567,-8.5374 -6.18101,-0.85932 -25.19731,-1.99217 -42.25845,-2.51745 -39.04269,-1.20205 -47.12979,-2.73148 -82.89019,-15.6763 -19.9284,-7.21382 -27.06073,-9.43166 -34.45816,-10.71495 -4.31626,-0.74879 -6.73266,-1.64917 -6.73266,-2.5087 0,-2.52938 35.4177,-14.78866 58.4808,-20.24222 27.52976,-6.50977 59.62417,-5.80138 113.91045,2.51423 40.52099,6.20703 65.5043,8.3233 86.81186,7.35359 l 10.53264,-0.47933 -0.73828,3.41498 c -1.26634,5.85761 -6.20507,15.6959 -16.90909,33.68422 -12.07044,20.28442 -12.56798,20.92959 -16.03442,20.79036 -1.45154,-0.0582 -15.20257,-3.24477 -30.5578,-7.08103 z m 43.38493,-13.42092 c 9.98964,-16.88434 17.58818,-31.38702 17.58777,-33.56859 -10e-5,-0.67815 -7.36594,-1.06275 -21.10394,-1.10189 -22.64276,-0.0645 -33.70539,-1.13613 -72.46515,-7.0196 -51.92498,-7.88185 -76.7827,-8.94008 -105.56616,-4.49404 -13.16288,2.03319 -61.83052,17.38704 -60.73084,19.15957 0.27038,0.43583 2.6708,1.11794 5.33426,1.51584 2.66346,0.39789 14.06949,4.06286 25.34673,8.1444 41.13328,14.88722 49.40545,16.48829 91.37401,17.6854 36.35832,1.03708 41.83052,1.79786 79.29621,11.02424 15.64377,3.85248 28.91637,6.82364 29.49467,6.60258 0.57819,-0.22107 5.72288,-8.29762 11.43244,-17.94791 z M 111.34576,342.36268 c -7.27195,-0.40443 -14.594765,-1.05824 -16.27291,-1.4529 -6.848804,-1.61072 -9.662046,-2.78736 -9.662046,-4.04118 0,-1.54196 18.398886,-7.82887 38.648176,-13.20609 7.55166,-2.00534 20.49528,-5.73438 28.76361,-8.28675 14.63476,-4.51762 15.08772,-4.59161 17.08504,-2.79095 1.47661,1.33122 1.96662,2.85823 1.74813,5.44763 -0.27236,3.2276 -0.87933,3.89725 -5.89742,6.50628 -3.0766,1.5996 -12.14768,6.50086 -20.15796,10.89168 -10.44422,5.72499 -15.4791,7.93867 -17.79851,7.82546 -1.7789,-0.0868 -9.18415,-0.48876 -16.45611,-0.89318 z m 27.90432,-6.41825 c 5.34975,-2.99361 14.30357,-7.85705 19.89739,-10.80765 5.59382,-2.95058 10.33996,-5.49527 10.54699,-5.65486 0.20702,-0.15958 0.0839,-1.45122 -0.27365,-2.87028 -0.82039,-3.25624 -2.35448,-3.25509 -11.87505,0.009 -4.15349,1.42393 -15.85387,4.82222 -26.00084,7.55174 -10.14695,2.72953 -23.87723,6.73507 -30.51172,8.90122 l -12.062695,3.93818 5.593816,1.171 c 3.076599,0.64405 12.001279,1.56237 19.832619,2.04073 7.83134,0.47834 14.43849,0.93588 14.68257,1.01674 0.24407,0.0809 4.82083,-2.30232 10.17057,-5.29593 z m 15.5749,6.71914 c -4.50539,-0.25496 -6.35661,-0.76112 -6.35661,-1.73803 0,-1.67307 24.04041,-14.95524 26.28814,-14.52403 1.77262,0.34008 12.30844,12.81052 12.34,14.60591 0.0398,2.26404 -11.27149,2.84452 -32.27153,1.65615 z m 27.0195,-2.28058 c 2.1953,-0.008 2.03079,-0.42099 -2.41411,-6.05707 l -4.76996,-6.04826 -10.97418,5.79495 -10.97416,5.79498 8.30298,0.62502 c 4.56665,0.34375 10.59138,0.4617 13.38828,0.26209 2.79691,-0.19959 6.14543,-0.36686 7.44115,-0.37171 z m 11.81405,-3.0116 c -6.522,-2.62988 -17.23642,-19.83422 -20.21431,-32.45852 -1.95554,-8.29022 -2.02409,-24.88377 -0.14324,-34.67658 4.80659,-25.02604 21.96283,-45.18652 45.81641,-53.83934 7.37932,-2.67684 9.7136,-3.01099 24.03899,-3.44128 19.1597,-0.57549 27.94111,0.68926 37.34617,5.37882 12.55115,6.25826 27.31915,21.14627 34.74717,35.02953 7.2465,13.54398 8.99969,23.82249 7.23732,42.43023 -1.58104,16.69304 -1.55003,16.66275 -17.31516,16.9206 -28.12883,0.46006 -59.91926,7.52218 -95.46045,21.20619 -12.12206,4.6672 -12.71766,4.79521 -16.0529,3.45035 z m 13.39305,-5.14317 c 34.22911,-13.54542 66.86533,-20.98473 95.50101,-21.7691 7.27195,-0.19919 13.50948,-0.38876 13.86115,-0.42126 0.35166,-0.0325 1.26701,-1.54085 2.03411,-3.35192 0.99726,-2.35447 1.39472,-8.20122 1.39472,-20.51689 0,-16.98091 -0.0439,-17.32446 -3.10799,-24.33555 -8.74686,-20.01403 -27.8686,-39.02606 -44.52019,-44.26474 -4.30816,-1.35535 -10.58443,-2.15252 -20.01761,-2.54244 -17.14294,-0.70862 -27.21842,1.06866 -39.65379,6.99478 -12.032,5.73389 -24.26245,17.90802 -30.39272,30.25275 -7.41944,14.94078 -10.03177,34.38841 -6.73054,50.10608 3.02283,14.39222 14.94029,32.92836 21.17065,32.92836 1.47284,0 6.18039,-1.38603 10.4612,-3.08007 z m -155.807085,2.03581 c -7.004923,-1.3835 -11.385116,-3.70327 -17.024018,-9.01596 -2.970651,-2.79883 -7.956797,-6.21466 -11.080302,-7.59076 -6.809841,-3.00015 -8.923398,-5.69503 -8.923398,-11.37774 0,-7.79937 -6.09603,-6.94139 67.125796,-9.4477 15.942378,-0.5457 39.055007,-1.56335 51.361397,-2.26147 12.3064,-0.69812 24.86082,-1.27826 27.8987,-1.2892 5.43449,-0.0196 5.53798,0.0356 6.42694,3.43148 1.1684,4.46334 0.28375,7.80235 -2.55874,9.65771 -1.24972,0.81573 -16.23135,5.3701 -33.29248,10.12081 -17.06115,4.75071 -37.868243,10.92803 -46.237996,13.72737 -15.957642,5.33719 -22.922148,6.17333 -33.695899,4.04546 z m 34.45796,-6.97293 c 10.18815,-3.29496 30.409315,-9.26571 44.935925,-13.26835 34.62627,-9.54087 34.10291,-9.32254 34.10291,-14.22599 0,-2.1356 -0.34325,-4.0764 -0.7628,-4.31289 -0.41953,-0.23649 -9.00096,0.15068 -19.06983,0.86036 -10.06887,0.70968 -34.32569,1.82444 -53.90404,2.47721 -58.278464,1.94313 -72.765198,2.69203 -73.897722,3.82023 -1.308516,1.30354 -0.180813,8.86983 1.511876,10.14387 0.655494,0.49336 3.480198,1.73683 6.277106,2.76328 3.120292,1.1451 7.050285,3.80547 10.170576,6.88486 7.42396,7.32661 15.247411,10.29475 28.260734,10.72184 2.242225,0.0736 11.590855,-2.37663 22.375265,-5.86442 z m 352.118775,0.26977 c -10.71897,-0.59635 -25.48176,-2.38516 -66.10873,-8.01039 -51.42295,-7.12005 -46.29148,-6.07993 -46.19875,-9.36432 0.12368,-4.38 2.40633,-9.57067 5.07976,-11.55117 2.57214,-1.90547 9.4997,-3.01128 30.43988,-4.85898 18.64977,-1.6456 114.54021,-4.15735 117.39763,-3.07512 5.16238,1.95526 5.80038,6.85037 2.54692,19.54415 -2.48752,9.70564 -4.25069,13.39247 -7.32659,15.31986 -2.3609,1.47938 -23.72459,2.66949 -35.83012,1.99597 z m 31.97904,-3.03135 c 4.28394,-0.85352 5.57174,-3.04742 8.73215,-14.87635 3.21055,-12.01649 2.82507,-15.43442 -1.88359,-16.69847 -6.09574,-1.63642 -104.57907,1.80776 -127.69975,4.46595 -17.52278,2.0146 -18.00175,2.21336 -19.78457,8.2108 -0.79359,2.66966 -1.34966,4.96509 -1.23571,5.10095 0.34297,0.40897 79.46421,11.3963 92.60246,12.85944 12.9211,1.43895 43.80314,2.02669 49.26901,0.93768 z M 14.923662,292.57505 c -2.854382,-2.16808 -3.707531,-8.0883 -3.733802,-25.90972 -0.02421,-16.45472 -0.02289,-16.46419 2.287393,-16.46419 1.271414,0 14.826167,2.27047 30.121674,5.0455 36.68314,6.65531 94.211433,16.01979 109.216753,17.77834 6.58638,0.7719 12.42174,1.67836 12.96748,2.01436 1.47282,0.90679 1.21199,10.19333 -0.32193,11.4615 -1.85778,1.53594 -38.06773,3.97051 -77.507783,5.21123 -18.459594,0.58071 -42.029902,1.32617 -52.378463,1.65659 -15.116791,0.48266 -19.176436,0.32665 -20.651322,-0.79361 z m 74.555371,-3.41779 c 47.393547,-1.59553 71.946337,-3.18064 73.990937,-4.7768 1.3757,-1.07397 1.75383,-6.40734 0.50852,-7.17262 -0.41953,-0.25782 -5.33955,-1.0011 -10.93336,-1.65176 C 134.05636,273.34739 38.12129,257.31697 15.996627,252.65576 l -2.796908,-0.58925 0.08584,12.49195 c 0.115355,16.79063 1.090051,24.05214 3.460232,25.77866 1.45302,1.05841 4.929119,1.25092 15.187772,0.84108 7.316915,-0.29233 33.21239,-1.20174 57.545491,-2.02094 z m 240.362247,2.39612 c -3.19521,-4.09913 -2.47708,-9.31292 1.56986,-11.39769 2.53677,-1.30681 40.12349,-12.53754 79.45807,-23.74169 9.78918,-2.78836 27.70271,-7.57281 39.80784,-10.63211 12.10501,-3.05931 25.07962,-6.5071 28.83225,-7.66176 3.75274,-1.15467 7.23555,-1.84545 7.73971,-1.53508 1.08032,0.66515 1.11632,27.09967 0.0509,37.68246 -0.48625,4.83125 -1.3419,7.9489 -2.49769,9.10029 -1.59617,1.59006 -6.18299,1.81414 -49.79615,2.4328 -40.501,0.5745 -52.03829,1.08373 -73.53374,3.24561 -14.02263,1.41031 -26.64268,2.85097 -28.04456,3.20148 -1.57997,0.39504 -2.94343,0.13111 -3.58685,-0.69431 z m 26.61536,-4.46206 c 21.38678,-2.18678 33.26335,-2.7307 74.75372,-3.42351 27.13002,-0.453 50.0728,-1.12902 50.98407,-1.50221 2.25096,-0.92194 2.85305,-5.19935 3.60782,-25.63208 0.43315,-11.72933 0.30105,-17.47736 -0.40184,-17.47736 -0.57596,0 -3.04996,0.70634 -5.49771,1.56965 -2.44764,0.8633 -14.51921,4.08392 -26.82561,7.15692 -34.04243,8.50065 -118.77255,32.97394 -121.2489,35.0213 -1.0544,0.87174 -1.9804,6.94299 -1.05226,6.89913 0.13984,-0.007 11.69617,-1.18194 25.68071,-2.61184 z m -28.17457,-13.23635 c -0.24549,-0.4715 -1.29857,-3.44588 -2.34015,-6.60975 -1.6212,-4.92443 -1.69187,-5.99488 -0.49092,-7.43641 1.79261,-2.15174 12.3326,-7.40153 60.81324,-30.29005 72.26479,-34.1174 76.95129,-36.38207 83.35794,-40.2814 6.49747,-3.95457 9.7368,-4.76644 10.98575,-2.75335 1.46049,2.35425 5.60002,23.95137 6.19724,32.33378 0.58847,8.25794 0.48991,8.87843 -1.73744,10.94564 -2.86627,2.66016 -13.28684,5.91151 -40.12709,12.52015 -11.18764,2.75465 -34.07143,9.05358 -50.85288,13.99764 -60.03343,17.6867 -65.0494,19.02625 -65.80569,17.57375 z M 389.511,254.91919 c 18.17991,-5.31341 42.43672,-11.98909 53.90405,-14.83484 25.09518,-6.22765 36.36225,-9.57725 39.44098,-11.72542 2.11864,-1.4783 2.25217,-2.13924 1.69238,-8.37195 -0.73797,-8.21518 -4.22078,-27.14392 -5.59614,-30.41453 l -0.99704,-2.37083 -4.30265,2.68175 c -5.42163,3.37926 -31.51414,16.10547 -79.05629,38.55845 -69.03521,32.60363 -67.1258,31.6411 -67.1258,33.83757 0,1.10602 0.42044,3.05823 0.93432,4.33827 0.51387,1.28003 1.16291,3.0652 1.4423,3.96704 0.4458,1.43897 2.10581,1.17176 13.55876,-2.18251 7.17792,-2.10224 27.92522,-8.16958 46.10513,-13.483 z m -258.33261,9.98085 c -32.836238,-4.78951 -63.670331,-10.00015 -86.8424,-14.67549 -8.216757,-1.65785 -17.92862,-3.31936 -21.581911,-3.69222 -7.980616,-0.81453 -10.62877,-2.64427 -10.824248,-7.47903 -0.229824,-5.68409 2.458737,-35.88616 3.273756,-36.77587 0.408521,-0.44596 21.642637,7.62756 47.186923,17.94116 52.63849,21.25297 70.31318,27.92608 90.65462,34.22684 7.83134,2.42575 14.8109,4.76971 15.51012,5.20879 3.53688,2.22096 -0.47763,9.88616 -5.08528,9.70971 -1.25861,-0.0482 -15.78982,-2.05696 -32.29158,-4.46389 z m 35.64363,-0.60115 c 0.62439,-1.16222 0.96427,-2.28346 0.7553,-2.49163 -0.20897,-0.20817 -6.31026,-2.19297 -13.55842,-4.41065 -22.47483,-6.87652 -57.169911,-20.15833 -121.495088,-46.51015 -9.890905,-4.05196 -14.951244,-5.66342 -15.366528,-4.89348 -0.340563,0.63141 -1.188819,8.58286 -1.885036,17.66993 -1.178505,15.3821 -1.142461,16.65772 0.522565,18.49053 1.248681,1.37453 3.123291,1.96863 6.211749,1.96863 2.432842,0 14.833571,2.02636 27.557184,4.50302 29.774135,5.79558 48.12701,8.90812 80.962514,13.73084 31.88666,4.68334 34.74145,4.83615 36.29576,1.94296 z m -2.08073,-11.33137 C 146.1433,247.32767 121.56152,238.6852 102.19225,230.9765 54.618238,212.04271 19.762038,197.27307 18.069197,195.33098 c -2.090918,-2.39878 -1.844515,-4.0683 2.95863,-20.0465 4.744879,-15.78435 9.35213,-27.41453 10.860161,-27.41453 0.687734,0 6.732474,4.21735 13.432747,9.37191 16.655354,12.81305 41.319793,29.80506 79.048155,54.45844 47.56916,31.08378 50.54296,33.21048 50.54296,36.14524 0,5.99934 -2.73513,7.37678 -10.17056,5.12198 z m 7.83694,-5.12209 c -0.65045,-1.68855 -10.02887,-8.08501 -65.48777,-44.6653 -21.359395,-14.08851 -46.898441,-31.66535 -56.753456,-39.05962 -9.855001,-7.39428 -18.079946,-13.27772 -18.277642,-13.0743 -0.720422,0.74129 -7.848236,21.88023 -10.2698,30.45711 -2.807078,9.94235 -3.044826,12.53469 -1.216176,13.26123 0.699227,0.2778 14.086247,5.84377 29.748933,12.3688 57.055171,23.76903 89.736151,36.05018 116.453091,43.76177 3.97264,1.14667 6.83899,-0.35976 5.80282,-3.04969 z m 146.74465,2.10242 c -1.10844,-1.81106 -2.01707,-4.06253 -2.01916,-5.00326 -0.004,-1.78962 6.25022,-7.5673 35.39896,-32.70188 33.98214,-29.30236 99.54836,-78.016 104.13417,-77.36835 2.60478,0.36786 3.80441,2.53448 13.97529,25.24127 3.39118,7.571 6.16581,14.71873 6.16581,15.88382 0,1.21279 -1.61804,3.447 -3.78498,5.22637 -4.49956,3.69478 -27.51679,15.52037 -48.08496,24.70461 -8.11103,3.62181 -33.90095,15.74825 -57.31091,26.94768 -23.40998,11.19941 -43.44002,20.36258 -44.51122,20.36258 -1.10588,0 -2.81865,-1.42314 -3.963,-3.29284 z m 51.16608,-21.16135 c 25.84507,-12.33532 50.19485,-23.77996 54.11053,-25.43255 11.45654,-4.83518 37.13317,-17.56977 43.4792,-21.56399 4.49113,-2.82674 5.84809,-4.24985 5.84809,-6.13331 0,-2.73218 -13.62848,-33.90357 -16.21333,-37.08357 -1.60583,-1.97561 -2.10825,-1.69548 -20.43136,11.39165 -39.8893,28.49074 -61.63525,45.56969 -95.82649,75.26086 l -21.99229,19.0978 1.64932,3.44546 c 0.90712,1.89502 1.81489,3.44548 2.01726,3.44548 0.20238,0 21.51395,-10.09252 47.35907,-22.42783 z m -203.71355,5.27105 c -4.75475,-3.25741 -27.63855,-18.45814 -50.85288,-33.77943 -23.214339,-15.32129 -49.988378,-33.64977 -59.497866,-40.72997 -9.509488,-7.08019 -18.059921,-13.28764 -19.000953,-13.79434 -4.715812,-2.53918 -3.627123,-5.24274 10.99731,-27.30996 7.536,-11.37127 10.629218,-14.57255 13.272926,-13.73667 1.035457,0.32738 9.620887,8.91912 19.078739,19.09277 54.163674,58.26286 89.167314,94.05642 101.318204,103.60464 4.18803,3.29098 4.3354,4.28478 1.27447,8.59483 -3.895,5.48447 -6.13214,5.22262 -16.58995,-1.94187 z m 14.25471,0.92364 2.18851,-3.06179 -5.4247,-4.75936 C 162.95123,214.1378 134.24323,184.67887 82.012133,128.87281 70.929155,117.03127 61.307822,107.34274 60.631387,107.34274 c -0.676446,0 -2.935839,2.27633 -5.020877,5.05852 -5.712203,7.6221 -18.001411,27.37553 -18.001411,28.93512 0,0.75368 2.035875,2.76568 4.524157,4.47115 2.488293,1.70547 11.298554,8.18217 19.578358,14.39268 8.279814,6.2105 33.361236,23.35193 55.736496,38.09208 22.37527,14.74013 45.00646,29.71411 50.29154,33.27548 5.28509,3.56137 9.94511,6.47521 10.35559,6.47521 0.41049,0 1.73118,-1.3778 2.93488,-3.06179 z m 128.20715,0.3922 c -1.15936,-1.46827 -2.10793,-3.5285 -2.10793,-4.57832 0,-1.0498 8.36501,-12.04464 18.58891,-24.43298 30.44138,-36.88593 96.29912,-113.594599 98.91591,-115.213559 2.29195,-1.417955 2.63836,-1.303173 6.11517,2.02636 2.02719,1.941203 8.08113,10.031759 13.45323,17.978999 8.5564,12.65797 9.64903,14.75845 8.8125,16.94085 -0.61746,1.61072 -9.9565,8.86078 -26.42163,20.5117 -29.68069,21.00233 -58.36238,43.832 -102.60768,81.67222 -4.9932,4.27038 -9.88,7.76432 -10.85955,7.76432 -0.97954,0 -2.72956,-1.20131 -3.88893,-2.66959 z m 17.05827,-10.30978 c 45.74516,-38.92806 68.16297,-56.74334 98.55821,-78.32359 16.74789,-11.89081 25.68071,-18.84754 25.68071,-19.99979 0,-1.7404 -12.84107,-21.37497 -19.25708,-29.445018 -1.80904,-2.27535 -3.90316,-4.136998 -4.65354,-4.136998 -1.9072,0 -77.81771,88.725816 -114.16548,133.438996 -3.43921,4.23074 -3.44964,4.27514 -1.5985,6.80712 1.02482,1.40174 2.02108,2.56294 2.21393,2.58046 0.19284,0.0176 6.14263,-4.89703 13.22175,-10.92118 z M 173.32221,212.8612 C 156.21256,196.97483 135.29358,175.43715 105.27754,142.80404 95.282638,131.93768 82.147026,117.98781 76.087315,111.80433 67.992503,103.54417 65.069653,99.886224 65.069653,98.015745 c 0,-1.519183 1.70943,-4.544215 4.238852,-7.50113 7.171374,-8.383394 30.750665,-31.804528 32.019285,-31.804528 0.65886,0 4.27246,5.813122 8.03022,12.918048 9.65457,18.254205 34.58971,59.301775 53.24484,87.650285 35.3496,53.71755 36.71839,55.90431 36.71839,58.66051 0,2.00987 -1.18485,3.71153 -4.42724,6.35829 -2.43499,1.98767 -4.63778,3.61397 -4.8951,3.61397 -0.25732,0 -7.76183,-6.7725 -16.67669,-15.04999 z m 20.68709,9.02801 c 1.8028,-1.64033 3.27782,-3.31002 3.27782,-3.71041 0,-1.43216 -5.73436,-10.47393 -25.95602,-40.92663 C 141.80918,132.79381 117.03442,92.307559 106.335,71.037267 l -4.75667,-9.456196 -8.338034,7.900925 c -9.399748,8.906989 -23.796482,24.285008 -25.249562,26.970584 -0.787041,1.454602 1.573388,4.46898 13.090761,16.71748 7.72801,8.21857 21.782195,23.3776 31.231515,33.6867 17.83135,19.45383 76.04996,78.01488 77.55868,78.01488 0.47286,0 2.3348,-1.34209 4.13761,-2.98243 z m 104.13948,1.45158 c -3.56374,-4.5133 -4.60634,-9.12487 -3.26379,-14.43628 3.62101,-14.32548 36.52144,-74.53346 70.80745,-129.578034 6.34766,-10.19086 12.4822,-20.366331 13.63231,-22.612154 3.45769,-6.751778 4.98373,-6.082068 24.619,10.804079 9.52109,8.188066 17.55422,15.518565 17.8514,16.289996 0.66791,1.734002 3.51638,-1.738451 -38.56476,47.013733 -19.39673,22.47165 -45.29127,52.93972 -57.54345,67.70683 -12.25218,14.76709 -22.98999,26.98675 -23.8618,27.15479 -0.87179,0.16803 -2.52617,-0.88631 -3.67636,-2.34296 z m 26.83539,-27.85046 c 18.19557,-21.9991 58.05061,-68.68762 88.13965,-103.25188 3.19783,-3.673498 5.82946,-7.158069 5.84808,-7.743491 0.0183,-0.585422 -3.27665,-3.77694 -7.32281,-7.092261 -4.04606,-3.315323 -11.63504,-9.814899 -16.86424,-14.443505 -5.22933,-4.628606 -10.00994,-8.248919 -10.62362,-8.045138 -0.61367,0.203779 -1.46543,1.027269 -1.89276,1.829976 -0.42735,0.802706 -6.90943,11.48995 -14.40461,23.749431 -31.28267,51.167388 -42.88669,71.564508 -59.36958,104.357558 -11.04256,21.96939 -11.6897,23.5931 -11.30671,28.36905 0.4087,5.09647 3.51795,11.44183 4.86601,9.93053 0.39831,-0.44655 10.71707,-12.89367 22.93059,-27.66027 z m -121.51906,16.06272 c -1.28812,-1.1955 -4.4263,-5.41286 -6.97374,-9.37193 -2.54744,-3.95905 -11.95815,-18.36861 -20.91269,-32.02121 -32.79121,-49.99534 -47.43981,-73.867565 -61.0774,-99.53536 -4.66074,-8.772137 -6.65474,-13.547677 -6.22284,-14.903321 0.90067,-2.826915 12.69292,-10.356067 26.34383,-16.820083 12.27723,-5.813548 16.55011,-6.725111 17.56608,-3.747497 0.33274,0.975185 3.49664,9.067961 7.03087,17.983947 3.53425,8.915986 10.16852,26.013402 14.74286,37.994258 6.08127,15.927766 40.38993,102.612796 46.39959,117.234226 0.79789,1.9413 -5.84017,5.35258 -10.42381,5.35679 -2.82201,0.003 -4.87273,-0.68488 -6.47275,-2.16982 z m 11.24494,-1.441 c 1.69571,-0.87355 2.86168,-2.12736 2.59106,-2.78625 C 209.34062,187.94394 174.26894,99.399013 167.33491,81.176908 151.65882,39.981307 149.84221,35.874531 147.42308,36.16243 c -2.9982,0.356816 -23.87577,10.799162 -30.47303,15.241727 -3.07085,2.06789 -5.73049,4.528898 -5.9103,5.468909 -0.33162,1.733579 13.16824,26.993032 24.45734,45.761874 8.75179,14.55042 22.00936,35.32154 43.09909,67.52497 10.03578,15.32435 19.77623,30.2696 21.64544,33.21167 5.31272,8.362 8.4676,9.83178 14.46843,6.74047 z m 65.97579,2.31009 c -1.7072,-0.85584 -2.6399,-2.26575 -2.83863,-4.29107 -0.3314,-3.37754 7.89653,-39.05178 14.01552,-60.76771 8.38902,-29.77213 36.45061,-117.177578 38.25907,-119.16829 2.60681,-2.869515 4.50371,-2.326238 24.86572,7.121599 20.49693,9.510445 22.31879,10.604241 22.31879,13.399672 0,1.164737 -7.72613,14.718176 -17.16917,30.118754 -21.17403,34.532535 -31.33751,51.872685 -44.8079,76.447765 -10.23425,18.67111 -25.48704,49.37139 -27.02308,54.39108 -1.26905,4.14723 -3.33983,4.89403 -7.62032,2.7482 z m 5.08529,-2.82989 c 0,-2.2137 13.74687,-30.39243 24.67392,-50.57733 13.09876,-24.19656 29.0625,-51.54848 49.90562,-85.507201 8.1727,-13.315395 14.57751,-24.664244 14.23294,-25.219666 -0.69756,-1.124378 -31.28212,-15.96509 -37.06869,-17.98704 -2.0272,-0.708351 -4.34147,-1.037278 -5.14279,-0.73095 -1.30591,0.499216 -9.79019,26.453078 -30.99869,94.826817 -6.51433,21.0014 -11.81387,40.74316 -17.68206,65.86888 -3.62756,15.532 -4.10579,18.7343 -2.91039,19.4882 1.98851,1.25408 4.99014,1.15682 4.99014,-0.16171 z m -60.39582,-3.21115 c -2.1999,-3.45057 -29.66432,-71.86977 -44.02578,-109.676754 -6.98538,-18.389221 -15.44847,-40.1139 -18.8069,-48.277066 -3.35839,-8.163165 -5.95389,-15.909722 -5.76773,-17.214572 0.45326,-3.177196 2.46798,-4.016874 25.23224,-10.51606 21.86862,-6.243484 26.0181,-6.738166 27.46,-3.273654 1.08699,2.611743 3.12108,17.940339 6.15102,46.352994 2.51957,23.626796 5.99493,47.348012 10.16808,69.402852 4.33497,22.91004 12.18319,69.281 12.18319,71.98404 0,2.65513 -1.72967,3.49788 -7.17914,3.49788 -2.99966,0 -4.31451,-0.55354 -5.41498,-2.27966 z m 10.21042,-1.10353 c 0.29523,-0.30266 -7.58073,-46.60817 -11.74607,-69.0592 -5.26687,-28.38829 -7.71573,-45.021592 -10.81456,-73.455562 -3.56177,-32.681657 -5.07538,-43.481871 -6.25904,-44.66102 -1.15953,-1.155109 -4.46887,-0.498615 -21.68362,4.301511 -15.78387,4.401137 -26.4435,7.996591 -26.4435,8.919291 0,0.448324 3.49145,9.41552 7.75878,19.927102 4.26732,10.511583 12.68574,32.106004 18.70759,47.9876 9.6756,25.517768 41.05602,104.485298 42.41206,106.728218 0.39919,0.66025 7.32963,0.0693 8.06836,-0.68794 z m 26.17176,2.41487 c -1.1808,-0.48867 -2.40195,-1.55059 -2.71369,-2.35984 -1.38392,-3.59273 1.794,-58.50702 6.87272,-118.760057 1.36215,-16.160224 3.03933,-38.669164 3.72707,-50.019866 1.57069,-25.923101 1.30785,-25.43512 12.70314,-23.584309 16.37384,2.659422 38.45826,8.255921 40.46417,10.254183 2.31512,2.306298 3.07469,-0.526979 -13.58806,50.68524 -13.76005,42.290829 -22.16888,71.487679 -30.49318,105.877329 l -6.86697,28.36904 -3.97915,0.21339 c -2.18852,0.11735 -4.94525,-0.18646 -6.12605,-0.67511 z m 14.48855,-28.41391 c 9.69516,-40.04756 15.64414,-60.4665 33.99157,-116.670556 6.12179,-18.753004 11.13054,-35.017181 11.13054,-36.142618 0,-1.418191 -1.01455,-2.367861 -3.30544,-3.094088 -9.17379,-2.908139 -41.14924,-9.290613 -43.00013,-8.583061 -1.54235,0.58959 -2.19806,5.343102 -3.05391,22.138507 -0.34074,6.686988 -1.94674,28.343715 -3.5689,48.126059 -4.99234,60.882407 -7.72861,106.219927 -7.14108,118.321437 0.075,1.54313 3.85797,3.25542 6.54361,2.96176 1.61934,-0.17706 2.87494,-4.21968 8.40374,-27.05744 z m -31.97727,26.07257 c -0.588,-0.70581 -1.80954,-5.60707 -2.71451,-10.89169 -0.90498,-5.28461 -4.81814,-27.84563 -8.6959,-50.13559 -8.29405,-47.675432 -11.16491,-67.218133 -14.79179,-100.691835 -2.86468,-26.43902 -2.72809,-28.698767 1.83759,-30.399702 1.26548,-0.471455 11.48203,-1.183093 22.70345,-1.581418 18.1137,-0.642981 20.55558,-0.540565 21.76648,0.912909 1.76959,2.1241 1.06095,19.691505 -2.43364,60.330836 -2.74337,31.90313 -5.915,77.57532 -7.73623,111.40354 -0.61365,11.39815 -1.3408,21.08668 -1.61589,21.53007 -0.80186,1.2925 -7.1485,0.92853 -8.31956,-0.47712 z m 8.64653,-39.76405 c 2.0934,-36.03134 3.23473,-51.75364 8.49245,-116.986862 1.14433,-14.197805 1.94536,-27.875738 1.78009,-30.395405 l -0.3005,-4.581215 -18.81557,0.330735 c -10.34856,0.181905 -20.30301,0.787177 -22.121,1.34505 -3.15415,0.967891 -3.30543,1.246746 -3.30543,6.092791 0,6.216947 4.46099,47.002243 7.18467,65.686989 3.76724,25.843647 19.54041,114.996687 20.57711,116.305887 0.57052,0.72045 1.76513,1.17029 2.6547,0.99963 1.39692,-0.26799 1.92219,-5.55652 3.85348,-38.7976 z"
       id="path1" />
  </g>
</svg>
